<mxfile host="app.diagrams.net" modified="2023-12-29T03:03:37.182Z" agent="Mozilla/5.0 (Windows NT 10.0; Win64; x64) AppleWebKit/537.36 (KHTML, like Gecko) Chrome/120.0.0.0 Safari/537.36" etag="jF9qhAwmF4JlOHTRD7HP" version="22.1.15" type="github">
  <diagram name="Page-1" id="nvn6G4osg2kuB5KW64rN">
    <mxGraphModel dx="1259" dy="655" grid="1" gridSize="10" guides="1" tooltips="1" connect="1" arrows="1" fold="1" page="1" pageScale="1" pageWidth="850" pageHeight="1100" math="0" shadow="0">
      <root>
        <mxCell id="0" />
        <mxCell id="1" parent="0" />
        <mxCell id="K5C3Ungo8rF5Zt5EX8Rx-1" value="2.0" style="swimlane;whiteSpace=wrap;html=1;" vertex="1" parent="1">
          <mxGeometry x="320" y="240" width="140" height="110" as="geometry" />
        </mxCell>
        <mxCell id="K5C3Ungo8rF5Zt5EX8Rx-4" value="Verifying" style="text;html=1;align=center;verticalAlign=middle;resizable=0;points=[];autosize=1;strokeColor=none;fillColor=none;" vertex="1" parent="K5C3Ungo8rF5Zt5EX8Rx-1">
          <mxGeometry x="35" y="50" width="70" height="30" as="geometry" />
        </mxCell>
        <mxCell id="K5C3Ungo8rF5Zt5EX8Rx-2" value="User" style="rounded=0;whiteSpace=wrap;html=1;" vertex="1" parent="1">
          <mxGeometry x="100" y="275" width="140" height="40" as="geometry" />
        </mxCell>
        <mxCell id="K5C3Ungo8rF5Zt5EX8Rx-5" value="D1&lt;span style=&quot;white-space: pre;&quot;&gt;&#x9;  User info&lt;/span&gt;" style="html=1;dashed=0;whiteSpace=wrap;shape=mxgraph.dfd.dataStoreID;align=left;spacingLeft=3;points=[[0,0],[0.5,0],[1,0],[0,0.5],[1,0.5],[0,1],[0.5,1],[1,1]];" vertex="1" parent="1">
          <mxGeometry x="550" y="280" width="100" height="30" as="geometry" />
        </mxCell>
        <mxCell id="K5C3Ungo8rF5Zt5EX8Rx-6" value="D1&lt;span style=&quot;white-space: pre;&quot;&gt;&#x9;  User info&lt;/span&gt;" style="html=1;dashed=0;whiteSpace=wrap;shape=mxgraph.dfd.dataStoreID;align=left;spacingLeft=3;points=[[0,0],[0.5,0],[1,0],[0,0.5],[1,0.5],[0,1],[0.5,1],[1,1]];" vertex="1" parent="1">
          <mxGeometry x="340" y="490" width="100" height="30" as="geometry" />
        </mxCell>
        <mxCell id="K5C3Ungo8rF5Zt5EX8Rx-9" value="1.0" style="swimlane;whiteSpace=wrap;html=1;" vertex="1" parent="1">
          <mxGeometry x="100" y="450" width="140" height="110" as="geometry" />
        </mxCell>
        <mxCell id="K5C3Ungo8rF5Zt5EX8Rx-10" value="Sign up" style="text;html=1;align=center;verticalAlign=middle;resizable=0;points=[];autosize=1;strokeColor=none;fillColor=none;" vertex="1" parent="K5C3Ungo8rF5Zt5EX8Rx-9">
          <mxGeometry x="40" y="50" width="60" height="30" as="geometry" />
        </mxCell>
        <mxCell id="K5C3Ungo8rF5Zt5EX8Rx-11" value="" style="endArrow=classic;html=1;rounded=0;exitX=1;exitY=0.5;exitDx=0;exitDy=0;entryX=0;entryY=0.5;entryDx=0;entryDy=0;" edge="1" parent="1" source="K5C3Ungo8rF5Zt5EX8Rx-2" target="K5C3Ungo8rF5Zt5EX8Rx-1">
          <mxGeometry width="50" height="50" relative="1" as="geometry">
            <mxPoint x="400" y="550" as="sourcePoint" />
            <mxPoint x="450" y="500" as="targetPoint" />
          </mxGeometry>
        </mxCell>
        <mxCell id="K5C3Ungo8rF5Zt5EX8Rx-13" value="sign-in" style="edgeLabel;html=1;align=center;verticalAlign=middle;resizable=0;points=[];" vertex="1" connectable="0" parent="K5C3Ungo8rF5Zt5EX8Rx-11">
          <mxGeometry x="-0.336" y="1" relative="1" as="geometry">
            <mxPoint x="13" y="1" as="offset" />
          </mxGeometry>
        </mxCell>
        <mxCell id="K5C3Ungo8rF5Zt5EX8Rx-12" value="" style="endArrow=classic;html=1;rounded=0;entryX=1;entryY=0.5;entryDx=0;entryDy=0;exitX=0;exitY=0.5;exitDx=0;exitDy=0;" edge="1" parent="1" source="K5C3Ungo8rF5Zt5EX8Rx-5" target="K5C3Ungo8rF5Zt5EX8Rx-1">
          <mxGeometry width="50" height="50" relative="1" as="geometry">
            <mxPoint x="560" y="400" as="sourcePoint" />
            <mxPoint x="450" y="500" as="targetPoint" />
          </mxGeometry>
        </mxCell>
        <mxCell id="K5C3Ungo8rF5Zt5EX8Rx-14" value="" style="endArrow=classic;html=1;rounded=0;exitX=0.5;exitY=1;exitDx=0;exitDy=0;entryX=0.5;entryY=0;entryDx=0;entryDy=0;" edge="1" parent="1" source="K5C3Ungo8rF5Zt5EX8Rx-2" target="K5C3Ungo8rF5Zt5EX8Rx-9">
          <mxGeometry width="50" height="50" relative="1" as="geometry">
            <mxPoint x="400" y="550" as="sourcePoint" />
            <mxPoint x="450" y="500" as="targetPoint" />
          </mxGeometry>
        </mxCell>
        <mxCell id="K5C3Ungo8rF5Zt5EX8Rx-15" value="" style="endArrow=classic;html=1;rounded=0;exitX=1;exitY=0.5;exitDx=0;exitDy=0;entryX=0;entryY=0.5;entryDx=0;entryDy=0;" edge="1" parent="1" source="K5C3Ungo8rF5Zt5EX8Rx-9" target="K5C3Ungo8rF5Zt5EX8Rx-6">
          <mxGeometry width="50" height="50" relative="1" as="geometry">
            <mxPoint x="400" y="550" as="sourcePoint" />
            <mxPoint x="310" y="510" as="targetPoint" />
          </mxGeometry>
        </mxCell>
        <mxCell id="K5C3Ungo8rF5Zt5EX8Rx-16" value="3.0" style="swimlane;whiteSpace=wrap;html=1;" vertex="1" parent="1">
          <mxGeometry x="320" y="370" width="140" height="110" as="geometry" />
        </mxCell>
        <mxCell id="K5C3Ungo8rF5Zt5EX8Rx-17" value="choose product&lt;br&gt;or&lt;br&gt;search by link" style="text;html=1;align=center;verticalAlign=middle;resizable=0;points=[];autosize=1;strokeColor=none;fillColor=none;" vertex="1" parent="K5C3Ungo8rF5Zt5EX8Rx-16">
          <mxGeometry x="15" y="40" width="110" height="60" as="geometry" />
        </mxCell>
        <mxCell id="K5C3Ungo8rF5Zt5EX8Rx-18" value="" style="endArrow=classic;html=1;rounded=0;exitX=0.75;exitY=1;exitDx=0;exitDy=0;entryX=0;entryY=0.5;entryDx=0;entryDy=0;" edge="1" parent="1" source="K5C3Ungo8rF5Zt5EX8Rx-2" target="K5C3Ungo8rF5Zt5EX8Rx-16">
          <mxGeometry width="50" height="50" relative="1" as="geometry">
            <mxPoint x="400" y="550" as="sourcePoint" />
            <mxPoint x="450" y="500" as="targetPoint" />
            <Array as="points">
              <mxPoint x="205" y="425" />
            </Array>
          </mxGeometry>
        </mxCell>
        <mxCell id="K5C3Ungo8rF5Zt5EX8Rx-19" value="select product" style="edgeLabel;html=1;align=center;verticalAlign=middle;resizable=0;points=[];" vertex="1" connectable="0" parent="K5C3Ungo8rF5Zt5EX8Rx-18">
          <mxGeometry x="0.2704" y="1" relative="1" as="geometry">
            <mxPoint as="offset" />
          </mxGeometry>
        </mxCell>
        <mxCell id="K5C3Ungo8rF5Zt5EX8Rx-20" value="3.1" style="swimlane;whiteSpace=wrap;html=1;" vertex="1" parent="1">
          <mxGeometry x="530" y="370" width="140" height="110" as="geometry" />
        </mxCell>
        <mxCell id="K5C3Ungo8rF5Zt5EX8Rx-21" value="web scrap" style="text;html=1;align=center;verticalAlign=middle;resizable=0;points=[];autosize=1;strokeColor=none;fillColor=none;" vertex="1" parent="K5C3Ungo8rF5Zt5EX8Rx-20">
          <mxGeometry x="30" y="55" width="80" height="30" as="geometry" />
        </mxCell>
        <mxCell id="K5C3Ungo8rF5Zt5EX8Rx-22" value="" style="endArrow=classic;html=1;rounded=0;exitX=1;exitY=0.5;exitDx=0;exitDy=0;entryX=0;entryY=0.5;entryDx=0;entryDy=0;" edge="1" parent="1" source="K5C3Ungo8rF5Zt5EX8Rx-16" target="K5C3Ungo8rF5Zt5EX8Rx-20">
          <mxGeometry width="50" height="50" relative="1" as="geometry">
            <mxPoint x="410" y="550" as="sourcePoint" />
            <mxPoint x="460" y="500" as="targetPoint" />
          </mxGeometry>
        </mxCell>
        <mxCell id="K5C3Ungo8rF5Zt5EX8Rx-23" value="fetch data" style="edgeLabel;html=1;align=center;verticalAlign=middle;resizable=0;points=[];" vertex="1" connectable="0" parent="K5C3Ungo8rF5Zt5EX8Rx-22">
          <mxGeometry x="-0.4127" y="1" relative="1" as="geometry">
            <mxPoint x="9" y="1" as="offset" />
          </mxGeometry>
        </mxCell>
        <mxCell id="K5C3Ungo8rF5Zt5EX8Rx-24" value="5.0" style="swimlane;whiteSpace=wrap;html=1;startSize=23;" vertex="1" parent="1">
          <mxGeometry x="530" y="580" width="140" height="110" as="geometry" />
        </mxCell>
        <mxCell id="K5C3Ungo8rF5Zt5EX8Rx-25" value="analysis&amp;nbsp;&lt;br&gt;product" style="text;html=1;align=center;verticalAlign=middle;resizable=0;points=[];autosize=1;strokeColor=none;fillColor=none;" vertex="1" parent="K5C3Ungo8rF5Zt5EX8Rx-24">
          <mxGeometry x="35" y="50" width="70" height="40" as="geometry" />
        </mxCell>
        <mxCell id="K5C3Ungo8rF5Zt5EX8Rx-26" value="" style="endArrow=classic;html=1;rounded=0;entryX=0.5;entryY=0;entryDx=0;entryDy=0;exitX=0.5;exitY=1;exitDx=0;exitDy=0;" edge="1" parent="1" source="K5C3Ungo8rF5Zt5EX8Rx-20" target="K5C3Ungo8rF5Zt5EX8Rx-24">
          <mxGeometry width="50" height="50" relative="1" as="geometry">
            <mxPoint x="640" y="490" as="sourcePoint" />
            <mxPoint x="690" y="440" as="targetPoint" />
          </mxGeometry>
        </mxCell>
        <mxCell id="K5C3Ungo8rF5Zt5EX8Rx-31" value="" style="endArrow=classic;html=1;rounded=0;exitX=0;exitY=0.5;exitDx=0;exitDy=0;entryX=0;entryY=0.5;entryDx=0;entryDy=0;" edge="1" parent="1" source="K5C3Ungo8rF5Zt5EX8Rx-24" target="K5C3Ungo8rF5Zt5EX8Rx-2">
          <mxGeometry width="50" height="50" relative="1" as="geometry">
            <mxPoint x="460" y="600" as="sourcePoint" />
            <mxPoint x="510" y="550" as="targetPoint" />
            <Array as="points">
              <mxPoint x="40" y="640" />
              <mxPoint x="40" y="295" />
            </Array>
          </mxGeometry>
        </mxCell>
        <mxCell id="K5C3Ungo8rF5Zt5EX8Rx-32" value="return analysis result&amp;nbsp;" style="edgeLabel;html=1;align=center;verticalAlign=middle;resizable=0;points=[];" vertex="1" connectable="0" parent="K5C3Ungo8rF5Zt5EX8Rx-31">
          <mxGeometry x="-0.3096" y="-3" relative="1" as="geometry">
            <mxPoint as="offset" />
          </mxGeometry>
        </mxCell>
        <mxCell id="K5C3Ungo8rF5Zt5EX8Rx-33" value="4.0" style="swimlane;whiteSpace=wrap;html=1;" vertex="1" parent="1">
          <mxGeometry x="740" y="510" width="140" height="110" as="geometry" />
        </mxCell>
        <mxCell id="K5C3Ungo8rF5Zt5EX8Rx-34" value="get product data" style="text;html=1;align=center;verticalAlign=middle;resizable=0;points=[];autosize=1;strokeColor=none;fillColor=none;" vertex="1" parent="K5C3Ungo8rF5Zt5EX8Rx-33">
          <mxGeometry x="15" y="55" width="110" height="30" as="geometry" />
        </mxCell>
        <mxCell id="K5C3Ungo8rF5Zt5EX8Rx-35" value="" style="endArrow=classic;html=1;rounded=0;exitX=1;exitY=0.75;exitDx=0;exitDy=0;entryX=0;entryY=0.5;entryDx=0;entryDy=0;" edge="1" parent="1" source="K5C3Ungo8rF5Zt5EX8Rx-20" target="K5C3Ungo8rF5Zt5EX8Rx-33">
          <mxGeometry width="50" height="50" relative="1" as="geometry">
            <mxPoint x="460" y="510" as="sourcePoint" />
            <mxPoint x="510" y="460" as="targetPoint" />
            <Array as="points">
              <mxPoint x="700" y="453" />
              <mxPoint x="700" y="565" />
            </Array>
          </mxGeometry>
        </mxCell>
        <mxCell id="K5C3Ungo8rF5Zt5EX8Rx-36" value="store last viewed item" style="edgeLabel;html=1;align=center;verticalAlign=middle;resizable=0;points=[];rotation=90;" vertex="1" connectable="0" parent="K5C3Ungo8rF5Zt5EX8Rx-35">
          <mxGeometry x="-0.2227" y="-1" relative="1" as="geometry">
            <mxPoint x="1" y="11" as="offset" />
          </mxGeometry>
        </mxCell>
        <mxCell id="K5C3Ungo8rF5Zt5EX8Rx-37" value="D2&lt;span style=&quot;white-space: pre;&quot;&gt;&#x9;&lt;/span&gt;&amp;nbsp;product Data" style="html=1;dashed=0;whiteSpace=wrap;shape=mxgraph.dfd.dataStoreID;align=left;spacingLeft=3;points=[[0,0],[0.5,0],[1,0],[0,0.5],[1,0.5],[0,1],[0.5,1],[1,1]];" vertex="1" parent="1">
          <mxGeometry x="755" y="670" width="110" height="30" as="geometry" />
        </mxCell>
        <mxCell id="K5C3Ungo8rF5Zt5EX8Rx-38" value="" style="endArrow=classic;html=1;rounded=0;exitX=0;exitY=0.75;exitDx=0;exitDy=0;entryX=0;entryY=0.5;entryDx=0;entryDy=0;" edge="1" parent="1" source="K5C3Ungo8rF5Zt5EX8Rx-33" target="K5C3Ungo8rF5Zt5EX8Rx-37">
          <mxGeometry width="50" height="50" relative="1" as="geometry">
            <mxPoint x="460" y="690" as="sourcePoint" />
            <mxPoint x="510" y="640" as="targetPoint" />
            <Array as="points">
              <mxPoint x="710" y="593" />
              <mxPoint x="710" y="685" />
            </Array>
          </mxGeometry>
        </mxCell>
        <mxCell id="K5C3Ungo8rF5Zt5EX8Rx-46" value="6.0" style="swimlane;whiteSpace=wrap;html=1;" vertex="1" parent="1">
          <mxGeometry x="830" y="340" width="140" height="110" as="geometry" />
        </mxCell>
        <mxCell id="K5C3Ungo8rF5Zt5EX8Rx-47" value="preferencing" style="text;html=1;align=center;verticalAlign=middle;resizable=0;points=[];autosize=1;strokeColor=none;fillColor=none;" vertex="1" parent="K5C3Ungo8rF5Zt5EX8Rx-46">
          <mxGeometry x="25" y="50" width="90" height="30" as="geometry" />
        </mxCell>
        <mxCell id="K5C3Ungo8rF5Zt5EX8Rx-48" value="" style="endArrow=classic;html=1;rounded=0;exitX=1;exitY=0.25;exitDx=0;exitDy=0;entryX=0;entryY=0.5;entryDx=0;entryDy=0;" edge="1" parent="1" target="K5C3Ungo8rF5Zt5EX8Rx-46" source="K5C3Ungo8rF5Zt5EX8Rx-20">
          <mxGeometry width="50" height="50" relative="1" as="geometry">
            <mxPoint x="610" y="450" as="sourcePoint" />
            <mxPoint x="950" y="455" as="targetPoint" />
            <Array as="points" />
          </mxGeometry>
        </mxCell>
        <mxCell id="K5C3Ungo8rF5Zt5EX8Rx-49" value="select product as favorite&amp;nbsp;" style="edgeLabel;html=1;align=center;verticalAlign=middle;resizable=0;points=[];" vertex="1" connectable="0" parent="K5C3Ungo8rF5Zt5EX8Rx-48">
          <mxGeometry x="0.1482" y="-3" relative="1" as="geometry">
            <mxPoint x="-22" y="-4" as="offset" />
          </mxGeometry>
        </mxCell>
        <mxCell id="K5C3Ungo8rF5Zt5EX8Rx-50" value="D3&lt;span style=&quot;white-space: pre;&quot;&gt;&#x9;  &lt;/span&gt;Favorite Products" style="html=1;dashed=0;whiteSpace=wrap;shape=mxgraph.dfd.dataStoreID;align=left;spacingLeft=3;points=[[0,0],[0.5,0],[1,0],[0,0.5],[1,0.5],[0,1],[0.5,1],[1,1]];" vertex="1" parent="1">
          <mxGeometry x="830" y="265" width="140" height="30" as="geometry" />
        </mxCell>
        <mxCell id="K5C3Ungo8rF5Zt5EX8Rx-51" value="" style="endArrow=classic;html=1;rounded=0;exitX=0;exitY=0.25;exitDx=0;exitDy=0;entryX=0;entryY=0.5;entryDx=0;entryDy=0;" edge="1" parent="1" source="K5C3Ungo8rF5Zt5EX8Rx-46" target="K5C3Ungo8rF5Zt5EX8Rx-50">
          <mxGeometry width="50" height="50" relative="1" as="geometry">
            <mxPoint x="970" y="660" as="sourcePoint" />
            <mxPoint x="1020" y="610" as="targetPoint" />
            <Array as="points">
              <mxPoint x="790" y="368" />
              <mxPoint x="790" y="280" />
            </Array>
          </mxGeometry>
        </mxCell>
      </root>
    </mxGraphModel>
  </diagram>
</mxfile>
